<svg xmlns="http://www.w3.org/2000/svg" viewBox="0 0 30 30">
  <g fill="none" fill-rule="evenodd">
    <path id="spinner-a" d="M0 0h30v30H0z" />
    <path id="spinner-b" fill="#6563ff" d="M1.5 15h2.25c0 6.213 5.037 11.25 11.25 11.25S26.25 21.213 26.25 15c0-3.61-1.7-6.822-4.343-8.88l1.382-1.777A13.477 13.477 0 0 1 28.5 15c0 7.456-6.044 13.5-13.5 13.5S1.5 22.456 1.5 15z" />
    <path id="spinner-c" fill="none" d="M15 28.5C7.544 28.5 1.5 22.456 1.5 15S7.544 1.5 15 1.5 28.5 7.544 28.5 15 22.456 28.5 15 28.5zm0-2.25c6.213 0 11.25-5.037 11.25-11.25S21.213 3.75 15 3.75 3.75 8.787 3.75 15 8.787 26.25 15 26.25z" />
  </g>
</svg>
